<?xml version="1.0" encoding="UTF-8"?>
<svg id="Layer_1" xmlns="http://www.w3.org/2000/svg" version="1.1" viewBox="0 0 512 512">
  
  <defs>
    <style>
      .st0 {
        stroke: #fff;
        stroke-miterlimit: 10;
      }

      .st0, .st1 {
        fill: #fff;
      }
    </style>
  </defs>
  <g id="epz3ErB9qMZ1" shape-rendering="geometricPrecision" text-rendering="geometricPrecision">
    <path class="st1" d="M374.27,423.39v-193.11l-58.31,20.32v-57.24s87.93-33.43,114.42-117.89c.91-2.93-4.35,1.64-4.21.82,4.21-25.2,5.86-61.84,4.82-57.8,12.86,24.07,23.87,70,2.6,131.39l-1.01,217.25-58.31,56.23h0v.02Z"/>
    <path class="st1" d="M137.73,423.39v-193.11l58.31,20.32v-57.24s-87.93-33.43-114.42-117.89c-.91-2.93,4.35,1.64,4.21.82-4.21-25.2-5.86-61.84-4.82-57.8-12.86,24.07-23.87,70-2.6,131.39l1.01,217.25,58.31,56.23h0v.02Z"/>
    <polygon class="st0" points="253.06 256.41 282.13 162.14 253.06 133.25 223.36 162.94 253.06 256.41"/>
    <polygon class="st0" points="223.36 280.49 252.75 309.58 282.13 280.49 282.13 368.35 252.75 425.53 223.36 365.95 223.36 280.49"/>
  </g>
</svg>