<?xml version="1.0" encoding="utf-8"?>
<!-- Generator: Adobe Illustrator 28.1.0, SVG Export Plug-In . SVG Version: 6.00 Build 0)  -->
<svg version="1.1" id="Layer_1" xmlns="http://www.w3.org/2000/svg" xmlns:xlink="http://www.w3.org/1999/xlink" x="0px" y="0px"
	 viewBox="0 0 573.4 777.4" style="enable-background:new 0 0 573.4 777.4;" xml:space="preserve">
<style type="text/css">
	.st0{fill:url(#SVGID_1_);stroke:#FFFFFF;stroke-width:8;stroke-miterlimit:10;}
	.st1{fill:#FFFFFF;stroke:#000000;stroke-width:5.0001;stroke-miterlimit:10.0002;}
	.st2{stroke:#000000;stroke-width:5.0001;stroke-miterlimit:10.0002;}
</style>
<g>
	
		<linearGradient id="SVGID_1_" gradientUnits="userSpaceOnUse" x1="287.4138" y1="626.8141" x2="289.5236" y2="805.9679" gradientTransform="matrix(1 0 0 1 0 -300)">
		<stop  offset="0" style="stop-color:#000000"/>
		<stop  offset="0.132" style="stop-color:#252525"/>
		<stop  offset="0.5649" style="stop-color:#999999"/>
		<stop  offset="0.8628" style="stop-color:#E2E2E2"/>
		<stop  offset="1" style="stop-color:#FFFFFF"/>
	</linearGradient>
	<path class="st0" d="M5.2,382.6L5.2,382.6c-5,153,49.1,339.2,210.6,377.3c72.1,19.1,151.9,18.4,221.3-10.4
		c103.3-49.9,187.4-202.6,86.7-254.3c-32.4-12.9-69.3,3.1-85.8,25.9c-22.3,30.6,2.5,59.3-19.8,90.4c-18.2,25.3-51.8,30.1-78.2,33.9
		C173,669.7,110.6,513.2,119.4,363.8c7.6-136.6,73.7-251,220.9-231c26.3,3.8,59.9,8.6,78.2,33.9c22.3,31.1-2.4,59.8,19.8,90.4
		c16.5,22.7,53.4,38.9,85.8,25.9c100.8-52.2,16.7-204-86.7-254.3C332.1-13.2,194.8-0.9,109.3,76.2C31.6,145.7,1.8,284.3,5.4,395.7"
		/>
	<path class="st1" d="M452.8,208.3c9.6-57.7,97.3-43.4,88.2,14.3C531.4,280.3,443.7,266,452.8,208.3z"/>
	<path class="st2" d="M454.2,555.4c4.4-58.3,93.1-52,89.2,6.4C539,620.1,450.3,613.8,454.2,555.4z"/>
</g>
</svg>
