<?xml version="1.0" encoding="UTF-8"?>
<svg id="Layer_1" xmlns="http://www.w3.org/2000/svg" version="1.1" viewBox="0 0 1080 1920">
  
  <defs>
    <style>
      .st0 {
        stroke: #fff;
        stroke-miterlimit: 10;
      }

      .st0, .st1 {
        fill: #fff;
      }
    </style>
  </defs>
  <g id="epz3ErB9qMZ1" shape-rendering="geometricPrecision" text-rendering="geometricPrecision">
    <path class="st1" d="M616.35,952.35v-124.66l-37.64,13.12v-36.95s56.76-21.58,73.86-76.1c.59-1.89-2.81,1.06-2.72.53,2.72-16.27,3.78-39.92,3.11-37.31,8.3,15.54,15.41,45.19,1.68,84.82l-.65,140.24-37.64,36.3h0Z"/>
    <path class="st1" d="M463.65,952.35v-124.66l37.64,13.12v-36.95s-56.76-21.58-73.86-76.1c-.59-1.89,2.81,1.06,2.72.53-2.72-16.27-3.78-39.92-3.11-37.31-8.3,15.54-15.41,45.19-1.68,84.82l.65,140.24,37.64,36.3h0Z"/>
    <polygon class="st0" points="538.1 844.56 556.87 783.7 538.1 765.05 518.93 784.22 538.1 844.56"/>
    <polygon class="st0" points="518.93 860.1 537.9 878.88 556.87 860.1 556.87 916.82 537.9 953.73 518.93 915.27 518.93 860.1"/>
  </g>
</svg>